<?xml version="1.0" encoding="UTF-8"?>
<svg width="18px" height="18px" viewBox="0 0 18 18" version="1.1" xmlns="http://www.w3.org/2000/svg" xmlns:xlink="http://www.w3.org/1999/xlink">
    <title>icon/预览1</title>
    <g id="页面-1" stroke="none" stroke-width="1" fill="none" fill-rule="evenodd">
        <g id="能力超市-配置规则弹窗" transform="translate(-1255.000000, -235.000000)" fill-rule="nonzero">
            <g id="编组-4" transform="translate(616.000000, 194.000000)">
                <g id="icon/预览1" transform="translate(639.000000, 41.000000)">
                    <rect id="矩形" fill="#000000" opacity="0" x="0" y="0" width="17.9999053" height="17.9999053"></rect>
                    <path d="M9.0000054,2.99995493 C13.1259739,2.99995493 16.6219634,6.93695961 17.8009572,8.43246346 C18.0663476,8.76424768 18.0663476,9.23565765 17.8009572,9.56744187 C16.6219634,11.0629457 13.1259739,14.9999328 8.99998782,14.9999328 C4.87400171,14.9999328 1.37806502,11.0629281 0.199071219,9.56742429 C-0.0663192341,9.23564007 -0.0663192341,8.76423011 0.199071219,8.43244589 C1.37806502,6.93694203 4.87403687,2.99995493 9.00002838,2.99995493 L9.0000054,2.99995493 Z M9.0000054,6.23097309 C7.90800528,6.23097309 6.92351242,6.90545978 6.50601656,7.94045433 C6.08801095,8.97544889 6.31902145,10.1659387 7.09101349,10.9579346 C7.85284273,11.7477986 9.02269661,11.9863868 10.0329961,11.5579431 C11.0419927,11.1299356 11.6999912,10.1199546 11.6999912,8.99995267 C11.6999912,7.4704529 10.4915015,6.23097309 9.00049759,6.23097309 L9.0000054,6.23097309 Z" id="形状" fill="#19CC96"></path>
                </g>
            </g>
        </g>
    </g>
</svg>