<?xml version="1.0" encoding="UTF-8"?>
<svg width="18px" height="18px" viewBox="0 0 18 18" version="1.1" xmlns="http://www.w3.org/2000/svg" xmlns:xlink="http://www.w3.org/1999/xlink">
    <title>icon/闭眼</title>
    <g id="页面-1" stroke="none" stroke-width="1" fill="none" fill-rule="evenodd">
        <g id="能力超市-配置规则弹窗" transform="translate(-1255.000000, -194.000000)" fill-rule="nonzero">
            <g id="编组-4" transform="translate(616.000000, 194.000000)">
                <g id="icon/闭眼" transform="translate(639.000000, 0.000000)">
                    <rect id="矩形" fill="#000000" opacity="0" x="0" y="0" width="18" height="18"></rect>
                    <path d="M7.59749414,11.8814941 L7.0065,14.0864941 L5.55823828,13.698 L6.14851172,11.4937559 C5.26498192,11.1679045 4.44383812,10.6930295 3.72074414,10.0897559 L2.106,11.7052559 L1.04475586,10.6439941 L2.66025586,9.02925 C1.74831077,7.93707035 1.13556771,6.62682274 0.882,5.22675 L1.557,5.103 C3.72391706,6.66538456 6.32856642,7.50420758 9,7.50000586 C11.7779941,7.50000586 14.34825,6.61125586 16.443,5.103 L17.118,5.22599414 C16.8647768,6.62625913 16.2522906,7.93677487 15.3405,9.02925 L16.9552441,10.6439941 L15.894,11.7052559 L14.2792559,10.0897559 C13.5561672,10.6930278 12.7350295,11.1679026 11.8515059,11.4937559 L12.4417441,13.6987559 L10.9935,14.0864941 L10.4025059,11.8814941 C9.47426668,12.0405545 8.52573332,12.0405545 7.59749414,11.8814941 L7.59749414,11.8814941 Z" id="路径" fill="#19CC96"></path>
                </g>
            </g>
        </g>
    </g>
</svg>