<?xml version="1.0" encoding="UTF-8"?>
<svg width="18px" height="18px" viewBox="0 0 18 18" version="1.1" xmlns="http://www.w3.org/2000/svg" xmlns:xlink="http://www.w3.org/1999/xlink">
    <title>icon/清空</title>
    <g id="页面-1" stroke="none" stroke-width="1" fill="none" fill-rule="evenodd">
        <g id="能力超市-配置规则弹窗" transform="translate(-1167.000000, -235.000000)" fill-rule="nonzero">
            <g id="编组-4" transform="translate(616.000000, 194.000000)">
                <g id="icon/清空" transform="translate(551.000000, 41.000000)">
                    <rect id="矩形" fill="#000000" opacity="0" x="0" y="0" width="18" height="18"></rect>
                    <path d="M4.0275,8.35875 L16.108875,11.590875 L16.084125,11.61675 L16.066125,11.842875 C16.021125,12.441375 15.953625,12.949875 15.751125,14.295375 L15.636375,15.062625 C15.568875,15.5205 15.521625,15.888375 15.48225,16.228125 C15.408,16.8705 15.069375,17.375625 14.5215,17.6625 C14.250375,17.805375 13.959,17.88525 13.716,17.89875 L13.645125,17.902125 L12.0555,17.474625 C11.9586639,17.4494985 11.8783295,17.3820297 11.8368493,17.2909915 C11.795369,17.1999533 11.7971696,17.0950609 11.84175,17.0055 L12.463875,15.74775 L12.106125,16.209 C11.8488745,16.5235883 11.5707462,16.820509 11.273625,17.09775 C11.1892436,17.17906 11.0684337,17.210223 10.95525,17.179875 L9.628875,16.8255 C9.53235266,16.8002964 9.45228774,16.7330109 9.41084305,16.6422688 C9.36939836,16.5515267 9.37097076,16.4469549 9.415125,16.3575 L10.038375,15.09975 L9.680625,15.561 C9.42357616,15.8757647 9.14543548,16.1726987 8.848125,16.44975 C8.76385664,16.5312621 8.64293244,16.5624545 8.52975,16.531875 L6.975,16.115625 C6.87923618,16.0897238 6.8000071,16.0224743 6.75889034,15.9321915 C6.71777357,15.8419087 6.71905111,15.7379947 6.762375,15.64875 L7.3845,14.391 L7.02675,14.85225 C6.76947906,15.1668203 6.49135201,15.4637398 6.19425,15.741 C6.10998164,15.8225121 5.98905744,15.8537045 5.875875,15.823125 L4.77675,15.5295 C4.68036342,15.5037433 4.60060357,15.4361267 4.55941754,15.3452559 C4.51823152,15.2543851 4.51995913,15.1498354 4.564125,15.060375 L5.18625,13.80375 L4.8285,14.265 C4.68225,14.452875 4.4685,14.686875 4.18725,14.967 C3.98865495,15.1648158 3.69977669,15.2419643 3.429,15.1695 L2.0565,14.80275 L1.650375,14.64975 C1.1295,14.200875 0.86625,13.56975 0.9585,12.970125 C1.05975,12.317625 1.526625,11.781 2.401875,11.410875 C3.006,11.15325 3.589875,10.107 3.978,8.643375 L4.0455,8.389125 L4.0275,8.357625 L4.0275,8.35875 Z M3.27375,7.02 C3.30079872,6.98053472 3.3304918,6.94294854 3.362625,6.9075 L5.538375,4.527 C5.71275,4.338 5.974875,4.186125 6.274125,4.10625 C6.566625,4.028625 6.8715,4.024125 7.129125,4.09275 L9.3015,4.67325 L9.3735,4.631625 L10.346625,1.013625 C10.499625,0.44325 11.1195,0.109125 11.730375,0.271125 L13.192875,0.662625 C13.80375,0.82575 14.173875,1.425375 14.020875,1.99575 L13.04775,5.61375 L13.089375,5.68575 L15.172875,6.242625 C15.429375,6.310125 15.692625,6.467625 15.906375,6.681375 C16.124625,6.8985 16.277625,7.1595 16.331625,7.410375 L17.0235,10.558125 C17.0358853,10.6151349 17.0434122,10.6730927 17.046,10.731375 C17.033625,10.84725 16.952625,10.9125 16.80525,10.92825 L3.42675,7.3485 C3.243375,7.29675 3.191625,7.1865 3.272625,7.018875 L3.27375,7.02 Z" id="形状" fill="#FF5B63"></path>
                </g>
            </g>
        </g>
    </g>
</svg>