<?xml version="1.0" encoding="UTF-8"?>
<svg width="18px" height="18px" viewBox="0 0 18 18" version="1.1" xmlns="http://www.w3.org/2000/svg" xmlns:xlink="http://www.w3.org/1999/xlink">
    <title>icon/绘制</title>
    <g id="页面-1" stroke="none" stroke-width="1" fill="none" fill-rule="evenodd">
        <g id="能力超市-配置规则弹窗" transform="translate(-632.000000, -235.000000)" fill-rule="nonzero">
            <g id="编组-4" transform="translate(616.000000, 194.000000)">
                <g id="icon/绘制" transform="translate(16.000000, 41.000000)">
                    <rect id="矩形" fill="#000000" opacity="0" x="4.24025338e-05" y="0" width="17.9999576" height="17.9999576"></rect>
                    <path d="M4.9946615,15.6814084 L3.22286098,15.6814084 C3.05477294,15.2723281 2.72953077,14.9478268 2.32006819,14.7806722 L2.32006819,3.21995335 C2.73890118,3.05897326 3.0607559,2.70540769 3.22286098,2.31909415 L14.7247284,2.31909415 C14.9835833,2.93051263 15.5947732,3.34943352 16.2713185,3.34943352 C17.2055937,3.34943352 17.9463868,2.60855245 17.9463868,1.67505074 C17.9463868,0.740441615 17.2055937,0.000667967177 16.2713185,0.000667967177 C15.5621483,0.000667967177 14.9498334,0.419500965 14.7247284,1.03102491 L3.22286098,1.03102491 C2.95847062,0.409915061 2.35017677,0.00539909651 1.67514588,0.00179296453 C0.740870735,0.00179296453 3.84527148e-05,0.742709188 3.84527148e-05,1.67617574 C3.84527148e-05,2.38444946 0.418910556,2.99586794 1.03120794,3.22107835 L1.03120794,14.7795472 C0.403779629,15.035658 -0.00456079348,15.6479042 3.84527148e-05,16.3255748 C3.84527148e-05,17.2602015 0.742013311,17.9999576 1.67628845,17.9999576 C2.38545866,17.9999576 2.99664862,17.5811422 3.22287856,16.9696182 L4.99467907,16.9696182 C5.34980054,16.9683256 5.63732738,16.6806967 5.63849396,16.3255748 C5.63732738,15.9704529 5.34980054,15.682824 4.99467907,15.6815314 L4.9946615,15.6814084 Z M6.70233716,16.5181603 C6.63810684,16.7433883 6.86321178,16.9684932 7.08831672,16.9054934 L9.76289245,16.1645772 L7.44402682,13.8460807 L6.70110669,16.5181779 L6.70223169,16.5181779 L6.70233716,16.5181603 Z M16.5932787,5.86146471 C16.3039434,5.57212945 15.8199837,5.60373485 15.4980235,5.8941951 L14.3701433,7.02038776 L16.6259212,9.27458362 L17.7538014,8.14849643 C18.0757615,7.82541125 18.0757615,7.34236552 17.7853013,7.05303026 L16.5932963,5.86169322 L16.5932787,5.86146471 Z M8.21621445,13.0409341 L10.4078499,15.3605908 L15.9808583,9.91860945 L13.726223,7.66422023 L8.21507188,13.041022 L8.21619688,13.041022 L8.21621445,13.0409341 Z" id="形状" fill="#1B69FD"></path>
                </g>
            </g>
        </g>
    </g>
</svg>