<?xml version="1.0" encoding="UTF-8"?>
<svg width="18px" height="18px" viewBox="0 0 18 18" version="1.1" xmlns="http://www.w3.org/2000/svg" xmlns:xlink="http://www.w3.org/1999/xlink">
    <title>icon/确认</title>
    <g id="页面-1" stroke="none" stroke-width="1" fill="none" fill-rule="evenodd">
        <g id="能力超市-配置规则弹窗" transform="translate(-1343.000000, -235.000000)" fill-rule="nonzero">
            <g id="编组-4" transform="translate(616.000000, 194.000000)">
                <g id="icon/确认" transform="translate(727.000000, 41.000000)">
                    <rect id="矩形" fill="#000000" opacity="0" x="0" y="0" width="18" height="18"></rect>
                    <path d="M16.5804258,5.82359766 C15.6660293,1.8 12.1140352,0 9.00003516,0 L8.99163281,0 C5.88962109,0 2.3460293,1.8 1.42323047,5.81519531 C0.385242188,10.3007988 3.16323633,14.0987988 5.6784375,16.498793 C7.53588131,18.2711429 10.4581949,18.2711429 12.3156387,16.498793 C14.8308223,14.0987988 17.608834,10.3091836 16.5804434,5.82359766 L16.5804258,5.82359766 Z M11.884834,6.54600586 L8.36882227,10.0223965 C8.24532804,10.1457589 8.07778392,10.2148526 7.90323047,10.2144088 C7.72825711,10.2151759 7.56021675,10.1460576 7.43642578,10.0223965 L6.11762695,8.71920703 C5.99539254,8.59700301 5.92671941,8.43124056 5.92671941,8.25839648 C5.92671941,8.08555241 5.99539254,7.91978996 6.11762695,7.79758594 C6.37711668,7.54502458 6.79053371,7.54502458 7.05002344,7.79758594 L7.90203516,8.64 L10.9536328,5.62440234 C11.2129729,5.37261562 11.6254939,5.37261562 11.884834,5.62440234 C12.0073612,5.74644717 12.0762369,5.91226524 12.0762369,6.0852041 C12.0762369,6.25814296 12.0073612,6.42396104 11.884834,6.54600586 L11.884834,6.54600586 Z" id="形状" fill="#1B69FD"></path>
                </g>
            </g>
        </g>
    </g>
</svg>